<svg
    width="32"
    height="32"
    viewBox="0 0 56 56"
    fill="none"
    xmlns="http://www.w3.org/2000/svg"
>
    <g opacity="1">
        <path
            d="M46.6666 9.33301H14C11.4263 9.33301 9.33331 11.426 9.33331 13.9997V25.6663H14V18.6663L28.9333 29.8663C29.3486 30.1767 29.841 30.333 30.3333 30.333C30.8256 30.333 31.318 30.1767 31.7333 29.8663L46.6666 18.6663V39.6663H28V44.333H46.6666C49.2403 44.333 51.3333 42.24 51.3333 39.6663V13.9997C51.3333 11.426 49.2403 9.33301 46.6666 9.33301ZM30.3333 25.083L15.554 13.9997H45.1126L30.3333 25.083Z"
            fill="#99CCDD"
        />
        <path
            d="M4.66669 28H21V32.6667H4.66669V28ZM9.33335 35H23.3334V39.6667H9.33335V35ZM16.3334 42H25.6667V46.6667H16.3334V42Z"
            fill="#99CCDD"
        />
    </g>
</svg>
